<svg width="160" height="32" viewBox="0 0 160 32" fill="none" xmlns="http://www.w3.org/2000/svg">
<path d="M23.8912 19.0933C23.5459 19.428 23.3872 19.912 23.4659 20.3866L24.6512 26.9466C24.7512 27.5026 24.5165 28.0653 24.0512 28.3866C23.5952 28.72 22.9885 28.76 22.4912 28.4933L16.5858 25.4133C16.3805 25.304 16.1525 25.2453 15.9192 25.2386H15.5578C15.4325 25.2573 15.3099 25.2973 15.1979 25.3586L9.29118 28.4533C8.99918 28.6 8.66852 28.652 8.34452 28.6C7.55518 28.4506 7.02852 27.6986 7.15785 26.9053L8.34452 20.3453C8.42318 19.8666 8.26452 19.38 7.91918 19.04L3.10452 14.3733C2.70185 13.9826 2.56185 13.396 2.74585 12.8666C2.92452 12.3386 3.38052 11.9533 3.93118 11.8666L10.5578 10.9053C11.0619 10.8533 11.5045 10.5466 11.7312 10.0933L14.6512 4.10665C14.7205 3.97331 14.8099 3.85065 14.9179 3.74665L15.0378 3.65331C15.1005 3.58398 15.1725 3.52665 15.2525 3.47998L15.3979 3.42665L15.6245 3.33331H16.1859C16.6872 3.38531 17.1285 3.68531 17.3592 4.13331L20.3179 10.0933C20.5312 10.5293 20.9459 10.832 21.4245 10.9053L28.0512 11.8666C28.6112 11.9466 29.0792 12.3333 29.2645 12.8666C29.4392 13.4013 29.2885 13.988 28.8779 14.3733L23.8912 19.0933Z" fill="#FD853A"/>
<path d="M55.8912 19.0933C55.5459 19.428 55.3872 19.912 55.4659 20.3866L56.6512 26.9466C56.7512 27.5026 56.5165 28.0653 56.0512 28.3866C55.5952 28.72 54.9885 28.76 54.4912 28.4933L48.5858 25.4133C48.3805 25.304 48.1525 25.2453 47.9192 25.2386H47.5578C47.4325 25.2573 47.3099 25.2973 47.1979 25.3586L41.2912 28.4533C40.9992 28.6 40.6685 28.652 40.3445 28.6C39.5552 28.4506 39.0285 27.6986 39.1579 26.9053L40.3445 20.3453C40.4232 19.8666 40.2645 19.38 39.9192 19.04L35.1045 14.3733C34.7019 13.9826 34.5619 13.396 34.7459 12.8666C34.9245 12.3386 35.3805 11.9533 35.9312 11.8666L42.5578 10.9053C43.0619 10.8533 43.5045 10.5466 43.7312 10.0933L46.6512 4.10665C46.7205 3.97331 46.8099 3.85065 46.9179 3.74665L47.0378 3.65331C47.1005 3.58398 47.1725 3.52665 47.2525 3.47998L47.3979 3.42665L47.6245 3.33331H48.1859C48.6872 3.38531 49.1285 3.68531 49.3592 4.13331L52.3179 10.0933C52.5312 10.5293 52.9459 10.832 53.4245 10.9053L60.0512 11.8666C60.6112 11.9466 61.0792 12.3333 61.2645 12.8666C61.4392 13.4013 61.2885 13.988 60.8779 14.3733L55.8912 19.0933Z" fill="#FD853A"/>
<path d="M87.8912 19.0933C87.5459 19.428 87.3872 19.912 87.4659 20.3866L88.6512 26.9466C88.7512 27.5026 88.5165 28.0653 88.0512 28.3866C87.5952 28.72 86.9885 28.76 86.4912 28.4933L80.5858 25.4133C80.3805 25.304 80.1525 25.2453 79.9192 25.2386H79.5578C79.4325 25.2573 79.3099 25.2973 79.1979 25.3586L73.2912 28.4533C72.9992 28.6 72.6685 28.652 72.3445 28.6C71.5552 28.4506 71.0285 27.6986 71.1579 26.9053L72.3445 20.3453C72.4232 19.8666 72.2645 19.38 71.9192 19.04L67.1045 14.3733C66.7019 13.9826 66.5619 13.396 66.7459 12.8666C66.9245 12.3386 67.3805 11.9533 67.9312 11.8666L74.5578 10.9053C75.0619 10.8533 75.5045 10.5466 75.7312 10.0933L78.6512 4.10665C78.7205 3.97331 78.8099 3.85065 78.9179 3.74665L79.0378 3.65331C79.1005 3.58398 79.1725 3.52665 79.2525 3.47998L79.3979 3.42665L79.6245 3.33331H80.1859C80.6872 3.38531 81.1285 3.68531 81.3592 4.13331L84.3179 10.0933C84.5312 10.5293 84.9459 10.832 85.4245 10.9053L92.0512 11.8666C92.6112 11.9466 93.0792 12.3333 93.2645 12.8666C93.4392 13.4013 93.2885 13.988 92.8779 14.3733L87.8912 19.0933Z" fill="#FD853A"/>
<path d="M119.891 19.0933C119.546 19.428 119.387 19.912 119.466 20.3866L120.651 26.9466C120.751 27.5026 120.517 28.0653 120.051 28.3866C119.595 28.72 118.989 28.76 118.491 28.4933L112.586 25.4133C112.381 25.304 112.153 25.2453 111.919 25.2386H111.558C111.433 25.2573 111.31 25.2973 111.198 25.3586L105.291 28.4533C104.999 28.6 104.669 28.652 104.345 28.6C103.555 28.4506 103.029 27.6986 103.158 26.9053L104.345 20.3453C104.423 19.8666 104.265 19.38 103.919 19.04L99.1045 14.3733C98.7019 13.9826 98.5619 13.396 98.7459 12.8666C98.9245 12.3386 99.3805 11.9533 99.9312 11.8666L106.558 10.9053C107.062 10.8533 107.505 10.5466 107.731 10.0933L110.651 4.10665C110.721 3.97331 110.81 3.85065 110.918 3.74665L111.038 3.65331C111.101 3.58398 111.173 3.52665 111.253 3.47998L111.398 3.42665L111.625 3.33331H112.186C112.687 3.38531 113.129 3.68531 113.359 4.13331L116.318 10.0933C116.531 10.5293 116.946 10.832 117.425 10.9053L124.051 11.8666C124.611 11.9466 125.079 12.3333 125.265 12.8666C125.439 13.4013 125.289 13.988 124.878 14.3733L119.891 19.0933Z" fill="#FD853A"/>
<path d="M151.891 19.0933C151.546 19.428 151.387 19.912 151.466 20.3866L152.651 26.9466C152.751 27.5026 152.517 28.0653 152.051 28.3866C151.595 28.72 150.989 28.76 150.491 28.4933L144.586 25.4133C144.381 25.304 144.153 25.2453 143.919 25.2386H143.558C143.433 25.2573 143.31 25.2973 143.198 25.3586L137.291 28.4533C136.999 28.6 136.669 28.652 136.345 28.6C135.555 28.4506 135.029 27.6986 135.158 26.9053L136.345 20.3453C136.423 19.8666 136.265 19.38 135.919 19.04L131.105 14.3733C130.702 13.9826 130.562 13.396 130.746 12.8666C130.925 12.3386 131.381 11.9533 131.931 11.8666L138.558 10.9053C139.062 10.8533 139.505 10.5466 139.731 10.0933L142.651 4.10665C142.721 3.97331 142.81 3.85065 142.918 3.74665L143.038 3.65331C143.101 3.58398 143.173 3.52665 143.253 3.47998L143.398 3.42665L143.625 3.33331H144.186C144.687 3.38531 145.129 3.68531 145.359 4.13331L148.318 10.0933C148.531 10.5293 148.946 10.832 149.425 10.9053L156.051 11.8666C156.611 11.9466 157.079 12.3333 157.265 12.8666C157.439 13.4013 157.289 13.988 156.878 14.3733L151.891 19.0933Z" fill="#FD853A"/>
</svg>
